<?xml version="1.0" encoding="UTF-8" standalone="no"?>
<!-- Created with Inkscape (http://www.inkscape.org/) -->

<svg
   xmlns:dc="http://purl.org/dc/elements/1.1/"
   xmlns:cc="http://creativecommons.org/ns#"
   xmlns:rdf="http://www.w3.org/1999/02/22-rdf-syntax-ns#"
   xmlns:svg="http://www.w3.org/2000/svg"
   xmlns="http://www.w3.org/2000/svg"
   xmlns:sodipodi="http://sodipodi.sourceforge.net/DTD/sodipodi-0.dtd"
   xmlns:inkscape="http://www.inkscape.org/namespaces/inkscape"
   width="210mm"
   height="297mm"
   viewBox="0 0 210 297"
   version="1.1"
   id="svg8"
   inkscape:version="0.92.4 (5da689c313, 2019-01-14)"
   sodipodi:docname="alone2.svg">
  <defs
     id="defs2" />
  <sodipodi:namedview
     id="base"
     pagecolor="#ffffff"
     bordercolor="#666666"
     borderopacity="1.0"
     inkscape:pageopacity="0.0"
     inkscape:pageshadow="2"
     inkscape:zoom="0.35"
     inkscape:cx="400"
     inkscape:cy="560"
     inkscape:document-units="mm"
     inkscape:current-layer="layer1"
     showgrid="false"
     inkscape:window-width="1920"
     inkscape:window-height="1001"
     inkscape:window-x="-9"
     inkscape:window-y="-9"
     inkscape:window-maximized="1" />
  <metadata
     id="metadata5">
    <rdf:RDF>
      <cc:Work
         rdf:about="">
        <dc:format>image/svg+xml</dc:format>
        <dc:type
           rdf:resource="http://purl.org/dc/dcmitype/StillImage" />
        <dc:title></dc:title>
      </cc:Work>
    </rdf:RDF>
  </metadata>
  <g
     inkscape:label="Calque 1"
     inkscape:groupmode="layer"
     id="layer1">
    <g
       id="g46"
       transform="matrix(0.11288616,0,0,0.10955873,7.3880482,1.7250011)">
	<g
   id="g32">
		<path
   id="path10"
   d="m 207.332,404.624 h -6 c -24.109,17.073 -39.179,45.198 -44.76,74.331 -1.635,8.511 -2.452,17.103 -2.452,25.534 h 53.212 l 19.754,-46.012 z"
   style="fill:#4b3f4e"
   inkscape:connector-curvature="0" />

		<path
   id="path12"
   d="m 355.406,478.955 c -5.581,-29.132 -20.651,-57.258 -44.76,-74.331 h -6 v 2.773 l -18.737,51.08 18.737,43.643 v 2.369 h 53.212 c -10e-4,-8.432 -0.818,-17.023 -2.452,-25.534 z"
   style="fill:#4b3f4e"
   inkscape:connector-curvature="0" />

		<path
   id="path14"
   d="m 418.886,21.374 c -2.443,-2.931 -6.179,-4.458 -9.981,-4.127 C 390.528,18.85 330.124,31.66 241.104,11.641 138.122,-11.517 5.496,61.807 54,241.079 l 13.223,14.542 h 377.533 l 17.788,-33.501 c -10e-4,0 27.959,-114.82 -43.658,-200.746 z"
   style="fill:#cc8763"
   inkscape:connector-curvature="0" />

		<path
   id="path16"
   d="M 218.315,8.133 C 119.841,-0.323 9.013,74.805 54,241.079 l 13.223,14.542 h 30 L 84,241.079 C 43.55,91.576 129.07,15.76 218.315,8.133 Z"
   style="fill:#cd7859"
   inkscape:connector-curvature="0" />

		<polygon
   id="polygon18"
   points="239.646,504.489 256.498,494.356 272.332,504.489 304.646,504.489 304.646,404.624 207.332,404.624 207.332,504.489 "
   style="fill:#eceaec" />

		<polygon
   id="polygon20"
   points="265.465,439.283 246.513,439.283 239.646,504.489 272.332,504.489 "
   style="fill:#3d3340" />

		<path
   id="path22"
   d="m 270.176,402.159 h -27.384 l -1.671,27.969 c -0.193,3.224 1.308,6.316 3.96,8.16 l 7.138,4.962 c 2.564,1.782 5.966,1.782 8.53,0 l 7.138,-4.962 c 2.652,-1.844 4.152,-4.935 3.96,-8.16 z"
   style="fill:#5d5360"
   inkscape:connector-curvature="0" />

		<circle
   id="circle24"
   r="37.93"
   cy="255.621"
   cx="444.755"
   style="fill:#fcc1ad" />

		<path
   id="path26"
   d="m 407.978,115.592 c -6.506,-8.603 -17.646,-12.203 -28.021,-9.256 -32.1,9.117 -75.437,13.423 -123.968,-3.334 -87.756,-30.3 -164.243,10.728 -183.886,79.32 -2.27,9.167 -3.849,18.599 -4.68,28.241 -0.125,2.356 -0.201,4.73 -0.201,7.128 l -0.264,-0.405 c -0.15,3.042 -0.231,6.103 -0.231,9.182 0,102.75 84.735,186.045 189.261,186.045 104.526,0 189.262,-83.294 189.262,-186.044 0,-41.548 -13.856,-79.913 -37.272,-110.877 z"
   style="fill:#fcdfd6"
   inkscape:connector-curvature="0" />

		<path
   id="path28"
   d="m 96.728,226.468 c 0,-14.644 1.334,-30.033 5.375,-44.146 13.922,-48.614 56.4,-83.372 111.203,-88.715 -68.964,-6.469 -124.83,31.542 -141.203,88.715 -3.252,11.355 -4.743,23.454 -5.207,35.377 -20.797,0.176 -37.604,17.083 -37.604,37.922 0,20.948 16.982,37.93 37.93,37.93 4.384,0 8.149,-0.752 11.374,-2.121 26.81,70.714 96.113,121.083 177.393,121.083 5.049,0 10.051,-0.199 15,-0.581 C 173.476,404.417 96.728,324.255 96.728,226.468 Z"
   style="fill:#fcc1ad"
   inkscape:connector-curvature="0" />

		<path
   id="path30"
   d="m 126.774,301.055 c 0,12.546 9.474,22.717 21.161,22.717 11.687,0 21.161,-10.171 21.161,-22.717 0,-15.756 -8.668,-29.332 -21.161,-35.552 -12.492,6.22 -21.161,19.795 -21.161,35.552 z"
   style="fill:#a8c3da"
   inkscape:connector-curvature="0" />

	</g>

	<g
   id="g44">
		<path
   id="path34"
   d="m 352.273,216.878 c -4.142,0 -7.5,3.357 -7.5,7.5 v 16.645 c 0,4.142 3.358,7.5 7.5,7.5 4.142,0 7.5,-3.358 7.5,-7.5 v -16.645 c 0,-4.142 -3.358,-7.5 -7.5,-7.5 z"
   inkscape:connector-curvature="0" />

		<path
   id="path36"
   d="m 159.704,248.523 c 4.142,0 7.5,-3.358 7.5,-7.5 v -16.645 c 0,-4.143 -3.358,-7.5 -7.5,-7.5 -4.142,0 -7.5,3.357 -7.5,7.5 v 16.645 c 0,4.141 3.358,7.5 7.5,7.5 z"
   inkscape:connector-curvature="0" />

		<path
   id="path38"
   d="m 255.989,252.363 c -8.876,0 -17.211,3.711 -22.868,10.183 -2.727,3.119 -2.408,7.857 0.71,10.583 3.002,2.624 7.848,2.419 10.583,-0.711 2.809,-3.212 7.028,-5.055 11.575,-5.055 4.547,0 8.766,1.842 11.574,5.055 2.726,3.119 7.464,3.438 10.583,0.711 3.119,-2.726 3.437,-7.464 0.711,-10.583 -5.657,-6.471 -13.992,-10.183 -22.868,-10.183 z"
   inkscape:connector-curvature="0" />

		<path
   id="path40"
   d="m 357.858,511.978 c 4.142,0 7.5,-3.358 7.5,-7.5 0,-8.945 -0.87,-18.012 -2.586,-26.945 -5.362,-27.988 -18.565,-52.838 -36.939,-70.14 50.576,-18.953 91.22,-57.857 111.938,-106.89 2.304,0.357 4.638,0.538 6.985,0.538 25.051,0 45.431,-20.38 45.431,-45.43 0,-15.249 -7.616,-28.8 -19.236,-37.05 1.957,-10.251 5.634,-34.38 4.112,-64.975 C 473.216,116.454 462.97,62.54 424.648,16.561 420.646,11.759 414.514,9.217 408.255,9.765 c -2.657,0.231 -5.947,0.659 -10.112,1.199 -25.895,3.361 -79.776,10.353 -155.392,-6.65 -40.294,-9.062 -84.107,-3.701 -120.208,14.705 -3.69,1.882 -5.156,6.398 -3.275,10.088 1.882,3.691 6.4,5.156 10.088,3.275 33.035,-16.844 73.167,-21.741 110.104,-13.434 78.206,17.586 133.866,10.363 160.614,6.891 3.99,-0.518 7.142,-0.927 9.484,-1.131 1.369,-0.119 2.707,0.425 3.567,1.457 35.552,42.656 45.145,92.987 46.932,127.698 1.321,25.654 -1.298,46.837 -3.161,57.98 -0.073,-0.021 -0.148,-0.035 -0.221,-0.055 -0.59,-0.161 -1.187,-0.306 -1.786,-0.443 -0.151,-0.035 -0.3,-0.075 -0.452,-0.108 -0.765,-0.167 -1.537,-0.317 -2.316,-0.446 -2.459,-30.456 -12.102,-59.513 -28.332,-85.455 -3.762,-6.013 -7.586,-12.403 -12.656,-17.529 -6.885,-7.035 -16.417,-10.607 -26.204,-9.916 -4.783,0.328 -9.33,1.916 -13.952,3.058 -34.387,8.5 -70.536,7.726 -104.479,-2.449 -0.057,-0.017 -0.115,-0.033 -0.172,-0.051 -18.106,-5.547 -35.718,-11.009 -54.711,-12.528 -36.383,-2.908 -73.772,6.304 -102.748,29.005 -23.331,18.278 -40.01,44.631 -45.866,73.736 -1.413,7.02 -2.411,14.116 -3.051,21.247 -0.009,0.098 -0.025,0.869 -0.049,0.873 -0.789,0.129 -4.79,0.996 -4.78,1.05 -12.367,-70.253 5.12,-128.139 49.675,-163.668 3.239,-2.582 3.771,-7.301 1.188,-10.54 -2.583,-3.238 -7.302,-3.771 -10.54,-1.188 -49.943,39.827 -69.128,104.344 -54.33,182.062 -11.669,8.244 -19.322,21.825 -19.322,37.112 0,25.05 20.38,45.43 45.431,45.43 2.347,0 4.681,-0.18 6.985,-0.538 20.719,49.033 61.362,87.937 111.938,106.89 -18.374,17.301 -31.577,42.151 -36.938,70.136 -1.717,8.937 -2.587,18.004 -2.587,26.949 0,4.142 3.358,7.5 7.5,7.5 H 357.858 Z M 68.729,286.004 c -0.501,0.024 -1.003,0.037 -1.506,0.037 -16.779,0 -30.431,-13.651 -30.431,-30.43 0,-13.961 9.523,-25.809 22.436,-29.354 0,0.067 0,0.134 0,0.201 0,8.288 0.54,16.579 1.609,24.797 1.536,11.804 4.166,23.417 7.892,34.749 z m 95.21,194.351 c 5.104,-26.643 18.03,-49.944 35.894,-65.092 v 81.715 h -37.986 c 0.332,-5.542 1.032,-11.108 2.092,-16.623 z m 50.893,-64.602 c 6.424,1.344 12.926,2.359 19.451,3.066 l -0.648,10.851 c -0.289,4.84 1.585,9.579 4.986,12.941 l -5.726,54.367 h -18.062 v -81.225 z m 67.813,2.468 c 4.862,-0.645 9.699,-1.463 14.5,-2.468 v 81.225 h -18.062 l -5.639,-53.538 c 3.969,-3.383 6.203,-8.518 5.89,-13.77 l -0.655,-10.961 c 1.324,-0.15 2.646,-0.313 3.966,-0.488 z m -26.161,18.849 -7.122,-4.951 c -0.501,-0.349 -0.791,-0.944 -0.754,-1.554 l 0.638,-10.677 c 0.271,0.01 13.871,-0.009 14.476,-0.032 l 0.64,10.709 c 0.037,0.61 -0.253,1.206 -0.754,1.555 z m -8.507,59.908 4.779,-45.371 c 1.095,0.286 2.242,0.455 3.375,0.455 1.046,0.024 2.084,-0.048 3.114,-0.241 l 4.756,45.156 h -16.024 z m 100.063,-16.62 c 1.059,5.513 1.758,11.078 2.091,16.62 h -37.986 v -81.715 c 17.864,15.147 30.79,38.449 35.895,65.095 z M 301.4,399.362 c -29.652,7.519 -61.17,7.52 -90.822,0 C 139.56,381.354 85.229,322.129 75.713,249.322 c -0.021,-0.158 -0.039,-0.316 -0.059,-0.474 -2.671,-21.038 -2.22,-44.107 3.698,-64.601 0.01,-0.035 0.021,-0.069 0.031,-0.104 11.152,-38.622 43.618,-68.504 82.1,-78.973 34.565,-9.403 67.073,-2.029 100.57,7.657 0.02,0.006 0.041,0.012 0.061,0.018 36.976,11.138 74.733,12.034 112.468,2.665 4.162,-1.033 8.287,-2.698 12.633,-2.698 5.846,0 11.341,2.758 14.87,7.41 21.342,28.127 33.786,62.566 35.459,97.821 0.495,10.431 0.076,20.911 -1.277,31.267 -9.512,72.812 -63.845,132.042 -134.867,150.052 z M 444.755,286.041 c -0.503,0 -1.005,-0.012 -1.506,-0.037 3.729,-11.341 6.36,-22.963 7.896,-34.778 0.014,-0.105 0.027,-0.211 0.041,-0.316 0.195,-1.518 0.373,-3.038 0.532,-4.562 0.006,-0.061 0.013,-0.122 0.02,-0.183 0.317,-3.085 0.558,-6.183 0.726,-9.291 0.021,-0.39 0.039,-0.78 0.058,-1.17 0.055,-1.148 0.099,-2.297 0.134,-3.448 0.013,-0.422 0.027,-0.845 0.037,-1.268 0.035,-1.508 0.059,-3.018 0.059,-4.531 0,-0.067 0,-0.134 0,-0.201 l 0.004,0.001 c 12.901,3.532 22.431,15.384 22.431,29.353 -0.001,16.78 -13.653,30.431 -30.432,30.431 z"
   inkscape:connector-curvature="0" />

		<path
   id="path42"
   d="m 151.278,258.778 c -2.105,-1.048 -4.581,-1.048 -6.686,0 -15.38,7.658 -25.317,24.249 -25.317,42.266 0,16.662 12.857,30.217 28.661,30.217 15.804,0 28.661,-13.556 28.661,-30.217 -0.001,-18.017 -9.939,-34.608 -25.319,-42.266 z m -3.343,57.483 c -7.533,0 -13.661,-6.827 -13.661,-15.217 0,-10.983 5.257,-21.134 13.661,-26.875 8.404,5.741 13.661,15.893 13.661,26.875 0,8.39 -6.128,15.217 -13.661,15.217 z"
   inkscape:connector-curvature="0" />

	</g>

</g>
  </g>
</svg>
