<?xml version="1.0" encoding="UTF-8" standalone="no"?>
<svg
   xmlns:dc="http://purl.org/dc/elements/1.1/"
   xmlns:cc="http://creativecommons.org/ns#"
   xmlns:rdf="http://www.w3.org/1999/02/22-rdf-syntax-ns#"
   xmlns:svg="http://www.w3.org/2000/svg"
   xmlns="http://www.w3.org/2000/svg"
   version="1.1"
   id="svg2"
   viewBox="0 0 1000 718.86499"
   height="766.78931"
   width="1066.6666">
  <defs
     id="defs4">
    <clipPath
       clipPathUnits="userSpaceOnUse"
       id="clipPath4150">
      <path
         d="M 0,780.661 H 612 V 0 H 0 Z"
         id="path4152" />
    </clipPath>
    <clipPath
       clipPathUnits="userSpaceOnUse"
       id="clipPath4162">
      <path
         d="M 0,780.661 H 612 V 0 H 0 Z"
         id="path4164" />
    </clipPath>
    <clipPath
       clipPathUnits="userSpaceOnUse"
       id="clipPath4170">
      <path
         d="M 94.1211,618.24 H 516.74 V 326.156 H 94.1211 Z"
         id="path4172" />
    </clipPath>
    <clipPath
       clipPathUnits="userSpaceOnUse"
       id="clipPath4174">
      <path
         d="M 93.1211,619.24 H 517.74 V 325.16 H 93.1211 Z"
         id="path4176" />
    </clipPath>
    <clipPath
       clipPathUnits="userSpaceOnUse"
       id="clipPath4178">
      <path
         d="M 94.1211,618.24 H 516.74 V 326.156 H 94.1211 Z"
         id="path4180" />
    </clipPath>
    <clipPath
       clipPathUnits="userSpaceOnUse"
       id="clipPath4182">
      <path
         d="M 94.121,326.16 H 516.74 V 618.24 H 94.121 Z"
         id="path4184" />
    </clipPath>
    <clipPath
       clipPathUnits="userSpaceOnUse"
       id="clipPath4222">
      <path
         d="M 96.4619,568.054 H 514.316 V 328.17 H 96.4619 Z"
         id="path4224" />
    </clipPath>
    <clipPath
       clipPathUnits="userSpaceOnUse"
       id="clipPath4226">
      <path
         d="M 96.462,328.17 H 514.311 V 568.054 H 96.462 Z"
         id="path4228" />
    </clipPath>
    <linearGradient
       x1="0"
       y1="0"
       x2="1"
       y2="0"
       gradientUnits="userSpaceOnUse"
       gradientTransform="matrix(205.83704,-380.37354,380.37354,205.83704,202.9375,682.52441)"
       spreadMethod="pad"
       id="linearGradient4254">
      <stop
         style="stop-opacity:1;stop-color:#ffffff"
         offset="0"
         id="stop4256" />
      <stop
         style="stop-opacity:1;stop-color:#eceff0"
         offset="1"
         id="stop4258" />
    </linearGradient>
    <clipPath
       clipPathUnits="userSpaceOnUse"
       id="clipPath4266">
      <path
         d="M 0,780.661 H 612 V 0 H 0 Z"
         id="path4268" />
    </clipPath>
    <clipPath
       clipPathUnits="userSpaceOnUse"
       id="clipPath4274">
      <path
         d="M 96.4619,569.876 H 514.316 V 367.937 H 96.4619 Z"
         id="path4276" />
    </clipPath>
  </defs>
  <metadata
     id="metadata7">
    <rdf:RDF>
      <cc:Work
         rdf:about="">
        <dc:format>image/svg+xml</dc:format>
        <dc:type
           rdf:resource="http://purl.org/dc/dcmitype/StillImage" />
        <dc:title></dc:title>
      </cc:Work>
    </rdf:RDF>
  </metadata>
  <g
     transform="translate(0,-333.49718)"
     id="layer1">
    <g
       transform="matrix(12.265681,0,0,-12.265681,-3242.2569,7996.3064)"
       id="g4146">
      <g
         clip-path="url(#clipPath4150)"
         id="g4148" />
    </g>
    <g
       transform="matrix(12.265681,0,0,-12.265681,-3242.2569,7996.3064)"
       id="g4158">
      <g
         clip-path="url(#clipPath4162)"
         id="g4160">
        <g
           id="g4166">
          <g
             id="g4168" />
          <g
             mask="url(#mask4186)"
             id="g4218">
            <g
               id="g4220" />
            <g
               id="g4230">
              <g
                 id="g4232"
                 clip-path="url(#clipPath4222)">
                <g
                   id="g4234">
                  <g
                     id="g4236"
                     clip-path="url(#clipPath4226)">
                    <g
                       id="g4238"
                       transform="translate(514.3164,328.1699)" />
                  </g>
                </g>
              </g>
            </g>
          </g>
        </g>
      </g>
    </g>
    <g
       transform="matrix(12.265681,0,0,-12.265681,-3242.2569,7996.3064)"
       id="g4242">
      <g
         id="g4244">
        <g
           id="g4250">
          <g
             id="g4252" />
        </g>
      </g>
    </g>
    <g
       transform="matrix(12.265681,0,0,-12.265681,-3242.2569,7996.3064)"
       id="g4270">
      <g
         id="g4272" />
      <g
         id="g4278">
        <g
           id="g4280"
           clip-path="url(#clipPath4274)" />
      </g>
    </g>
    <g
       style="fill:#000000"
       transform="matrix(12.265681,0,0,-12.265681,518.39588,1052.3622)"
       id="g4336">
      <path
         id="path4338"
         style="fill:#000000;fill-opacity:1;fill-rule:nonzero;stroke:none"
         d="M 0,0 C 11.709,0.112 16.977,2.155 19.82,3.621 22.508,4.933 24.926,6.654 27.098,9.246 27.533,9.774 28.039,9.579 28.672,9.302 29.809,8.813 32.131,7.665 33.031,7.4 34.844,6.862 35.32,8.513 33.5,9.385 32.352,9.937 29.965,11.171 29.43,11.509 28.963,11.796 28.764,11.919 29.061,12.414 29.432,13.031 30.289,15.15 30.367,15.519 30.541,16.309 30.877,16.618 31.912,16.484 33.377,16.286 35.605,15.899 36.646,16.154 37.549,16.383 37,17.281 36.436,17.482 35.895,17.682 33.354,18.342 32.443,18.453 31.592,18.563 31.248,18.939 31.303,19.448 31.365,19.964 31.682,22.252 31.662,23.079 31.633,24.014 32.379,23.907 33.01,23.984 33.639,24.067 36.914,23.9 37.918,23.941 40.217,24.024 39.189,25.555 37.672,25.741 36.426,25.898 33.381,26.048 32.596,26.047 31.861,26.047 31.551,25.904 31.539,26.99 31.5,30.394 29.682,35.511 28.299,38.157 28.15,38.455 28.113,38.889 28.195,39.234 29.506,44.717 28.637,54.986 25.057,56.8 22.76,57.778 15.662,56.198 12.113,54.292 10.492,53.462 9.594,52.987 9.131,52.737 8.803,52.593 8.441,52.565 8.125,52.622 7.123,52.799 4.846,53.132 1.719,53.132 -5.229,53.132 -10.938,52.442 -13.654,51.794 -14.141,51.679 -14.686,51.73 -15.164,51.961 -18.749,53.677 -21.271,54.761 -25.883,55.379 -28.758,55.771 -29.875,54.292 -30.898,52.593 -33.48,47.882 -33.253,42.283 -31.802,38.417 -31.461,37.358 -31.658,37.406 -32.32,36.146 -33.9,33.11 -35.203,28.861 -35.02,24.059 -34.994,23.52 -35.722,23.504 -36.102,23.483 -37.406,23.403 -39.88,23.148 -40.984,22.822 -42.904,22.255 -42.521,20.655 -40.783,21.024 -40.113,21.168 -36.389,21.43 -35.768,21.387 -35.14,21.35 -34.893,21.566 -34.749,20.755 -34.559,19.738 -33.997,17.453 -33.742,16.73 -33.554,16.187 -33.607,16.12 -34.24,15.916 -34.89,15.704 -36.201,15.276 -37.004,15.033 -38.255,14.66 -38.199,13.18 -36.781,13.408 -35.759,13.57 -34.615,13.804 -33.697,13.936 -32.902,14.057 -32.645,13.955 -32.275,13.228 -31.826,12.334 -30.89,10.964 -30.24,10.164 -29.875,9.702 -30.143,9.475 -30.682,9.235 -31.223,8.99 -34.376,7.125 -35.17,6.23 -36.383,4.867 -35.023,4.081 -33.943,4.921 -32.582,5.975 -30.16,7.262 -29.252,7.703 -28.587,8.024 -28.332,8.149 -27.783,7.649 -25.855,5.911 -23.451,4.542 -20.758,3.469 -15.169,1.294 -7.492,0.056 0,0" />
    </g>
    <g
       transform="matrix(12.265681,0,0,-12.265681,636.7646,437.92773)"
       id="g4340">
      <path
         id="path4342"
         style="fill:#ffffff;fill-opacity:1;fill-rule:nonzero;stroke:none"
         d="M 0,0 C 0.904,0.484 2.373,1.27 3.361,1.753 6.887,3.541 11.428,4.844 13.973,4.419 16.191,3.928 17.668,-4.151 16.068,-11.073 15.93,-11.423 15.928,-12.06 16.191,-12.544 18.182,-16.242 19.482,-20.08 19.535,-23.354 19.551,-24.151 19.316,-24.229 19.016,-24.314 18.264,-24.548 16.676,-24.75 15.924,-25.003 14.768,-25.391 14.779,-26.465 15.479,-26.717 16.273,-27.007 17.262,-26.717 18.193,-26.571 19.125,-26.426 19.555,-26.363 19.566,-26.985 19.59,-27.995 19.418,-29.745 19.16,-30.651 19.037,-31.073 18.979,-31.024 18.588,-31.082 17.729,-31.228 17.379,-31.082 16.877,-31.199 16.381,-31.316 16.039,-31.813 16.461,-32.338 16.861,-32.841 17.668,-32.896 18.273,-33.128 18.842,-33.339 17.332,-36.01 16.92,-36.866 16.549,-37.65 16.068,-37.363 15.57,-37.319 14.857,-37.258 13.891,-36.931 13.523,-37.639 13.273,-38.121 13.408,-38.419 13.846,-38.77 14.361,-39.183 15.152,-39.163 14.82,-39.724 14.295,-40.621 11.445,-43.495 6.166,-45.428 -0.871,-47.815 -11.482,-48.386 -22.131,-46.334 -28.234,-45.108 -32.693,-43.143 -35.08,-41.134 -35.644,-40.654 -35.086,-40.379 -34.604,-40.184 -34.129,-39.982 -33.646,-39.727 -33.443,-39.324 -33.24,-38.914 -33.531,-38.242 -34.314,-38.28 -34.773,-38.295 -35.902,-38.684 -36.482,-38.904 -37.188,-39.174 -37.313,-39.031 -37.818,-38.527 -38.736,-37.608 -39.459,-36.129 -39.66,-35.712 -39.854,-35.319 -39.822,-35.151 -39.146,-34.985 -38.451,-34.807 -37.596,-34.595 -37.277,-34.172 -36.98,-33.788 -37.432,-33.085 -38.408,-33.191 -39.345,-33.293 -40.064,-33.321 -40.398,-33.311 -40.599,-33.308 -40.746,-33.137 -40.896,-32.793 -41.379,-31.692 -41.887,-29.521 -41.919,-29.037 -41.957,-28.455 -41.633,-28.523 -40.931,-28.521 -40.23,-28.512 -38.925,-28.658 -38.168,-28.521 -37.546,-28.408 -37.402,-27.542 -37.818,-27.166 -38.262,-26.771 -40.091,-26.569 -41.332,-26.501 -42.354,-26.446 -42.242,-26.126 -42.223,-24.742 -42.164,-21.263 -40.736,-16.229 -38.505,-12.682 -37.837,-11.629 -37.044,-10.676 -36.98,-10.002 -36.902,-9.125 -37.804,-8.565 -38.559,-9.127 -39.011,-9.466 -39.076,-9.684 -39.351,-9.043 -41.095,-4.169 -38.896,1.369 -37.146,2.441 -35.227,3.629 -29.24,1.442 -26.16,-0.437 -24.709,-1.361 -24.301,-1.282 -22.998,-0.897 -21.117,-0.336 -14.498,0.414 -7.814,0.414 -4.18,0.414 -2.432,0.169 -1.582,-0.06 -0.969,-0.171 -0.646,-0.231 0,0" />
    </g>
    <g
       style="fill:#000000"
       transform="matrix(12.265681,0,0,-12.265681,269.58532,815.12233)"
       id="g4344">
      <path
         id="path4346"
         style="fill:#000000;fill-opacity:1;fill-rule:nonzero;stroke:none"
         d="M 0,0 C 0,-1.27 0.651,-2.708 2.379,-2.708 4.104,-2.708 4.784,-0.903 4.784,0.302 4.784,1.507 4.438,3.534 2.459,3.534 0.477,3.534 0,1.411 0,0" />
    </g>
    <g
       style="fill:#000000"
       transform="matrix(12.265681,0,0,-12.265681,672.29215,809.26424)"
       id="g4348">
      <path
         id="path4350"
         style="fill:#000000;fill-opacity:1;fill-rule:nonzero;stroke:none"
         d="M 0,0 C 0,-1.89 0.809,-3.186 2.533,-3.186 3.895,-3.186 4.734,-1.666 4.734,-0.126 4.734,2.058 3.814,3.005 2.357,3.005 0.6,3.005 0,1.078 0,0" />
    </g>
    <g
       style="fill:#000000"
       transform="matrix(12.265681,0,0,-12.265681,459.39182,874.80909)"
       id="g4352">
      <path
         id="path4354"
         style="fill:#000000;fill-opacity:1;fill-rule:nonzero;stroke:none"
         d="M 0,0 C 0,-1.978 1.662,-2.912 4.035,-2.912 6.414,-2.912 7.521,-1.487 7.521,-0.123 7.521,1.117 6.209,2.695 3.768,2.695 1.188,2.695 0,1.287 0,0" />
    </g>
    <g
       style="fill:#ffffff;fill-opacity:1"
       transform="matrix(12.265681,0,0,-12.265681,479.61057,876.70193)"
       id="g4356">
      <path
         id="path4358"
         style="fill:#ffffff;fill-opacity:1;fill-rule:nonzero;stroke:none"
         d="M 0,0 C 0,-0.793 0.936,-1.362 2.186,-1.362 3.373,-1.362 4.113,-0.918 4.113,-0.081 4.113,0.824 3.195,1.349 2.025,1.349 0.855,1.349 0,0.854 0,0" />
    </g>
    <g
       style="fill:#000000"
       transform="matrix(12.265681,0,0,-12.265681,775.16073,689.43443)"
       id="g4360">
      <path
         id="path4362"
         style="fill:#000000;fill-opacity:1;fill-rule:nonzero;stroke:none"
         d="M 0,0 C -3.418,0.431 -5.123,3.462 -5.822,4.584 -6.203,5.187 -6.096,5.371 -7.035,5.393 -8.549,5.436 -11.35,6.969 -12.156,8.499 -12.732,9.588 -13.006,9.141 -14.596,8.619 -17.215,7.761 -19.607,7.86 -21.564,8.992 -25.772,11.585 -24.77,17.416 -23.959,19.598 -22.242,24.479 -19.904,27.536 -16.852,28.715 -12.471,30.051 -9.436,26.647 -8.273,25.023 -7.354,23.632 -6.684,22.139 -6.166,20.6 -5.828,19.793 -6.025,19.354 -5.268,19.165 -3.441,18.695 -2.426,18.115 -1.771,17.529 -1.205,17.03 -1.113,16.941 -0.105,17.25 0.701,17.497 4.059,18.146 5.635,17.759 6.941,17.579 8.271,16.823 9.271,15.851 10.539,14.697 12.357,11.125 9.641,6.249 7.156,2.233 3.352,-0.404 0,0" />
    </g>
    <g
       style="fill:#ffffff;fill-opacity:1"
       transform="matrix(12.265681,0,0,-12.265681,500.47695,510.82767)"
       id="g4364">
      <path
         id="path4366"
         style="fill:#ffffff;fill-opacity:1;fill-rule:nonzero;stroke:none"
         d="M 0,0 C 0.354,-3.176 2.59,-4.893 6.564,-4.076 7.543,-3.872 8.566,-3.546 8.904,-3.207 9.25,-2.873 9.23,-2.31 9.08,-2.063 8.848,-1.688 6.063,-0.967 6.455,2.219 6.76,4.727 9.08,5.463 9.77,5.527 11.506,5.683 12.805,4.502 13.074,4.281 13.35,4.059 14.16,4.504 14.027,5.189 13.707,6.862 12.182,8.93 11.363,9.992 10.828,10.686 9.057,12.475 6.566,11.927 2.811,10.8 -0.271,4.325 0,0" />
    </g>
    <g
       style="fill:#ffffff;fill-opacity:1"
       transform="matrix(12.265681,0,0,-12.265681,640.09474,475.64725)"
       id="g4368">
      <path
         id="path4370"
         style="fill:#ffffff;fill-opacity:1;fill-rule:nonzero;stroke:none"
         d="M 0,0 C -0.441,-0.304 -1.52,-1.97 -1.688,-2.679 -1.807,-3.178 -3.133,-2.218 -3.035,-1.217 -2.969,-0.571 -2.859,0.076 -2.035,0.497 -1.023,1.019 0.232,0.167 0,0" />
    </g>
    <g
       style="fill:#ffffff;fill-opacity:1"
       transform="matrix(12.265681,0,0,-12.265681,753.88713,541.97014)"
       id="g4372">
      <path
         id="path4374"
         style="fill:#ffffff;fill-opacity:1;fill-rule:nonzero;stroke:none"
         d="M 0,0 C -0.283,-2.139 -1.533,-3.426 -2.627,-4.039 -5.668,-5.735 -9.818,-3.129 -9.285,0.766 -9.027,2.669 -8.004,4.156 -6.35,4.706 -2.271,6.063 0.426,2.622 0,0" />
    </g>
    <g
       style="fill:#ffffff;fill-opacity:1"
       transform="matrix(12.265681,0,0,-12.265681,878.98726,526.7288)"
       id="g4376">
      <path
         id="path4378"
         style="fill:#ffffff;fill-opacity:1;fill-rule:nonzero;stroke:none"
         d="M 0,0 C 1.232,-2.316 -0.336,-5.673 -1.889,-7.445 -4.682,-10.627 -6.967,-11.544 -9.32,-10.771 -10.863,-10.261 -11.84,-8.877 -12.271,-8.016 -12.49,-7.565 -12.262,-7.439 -11.672,-7.101 -11.229,-6.844 -10.92,-6.511 -10.484,-6.705 -9.291,-7.231 -7.416,-7.137 -6.439,-6.228 -5.637,-5.469 -5.141,-3.825 -5.664,-2.655 -6.225,-1.393 -7.17,-0.824 -7.725,-0.547 -8.197,-0.311 -8.156,0.128 -8.223,0.579 -8.313,1.24 -8.277,1.463 -7.938,1.641 -7.379,1.938 -6.117,2.21 -5.23,2.265 -4.352,2.32 -1.281,2.397 0,0" />
    </g>
    <g
       style="fill:#ffffff;fill-opacity:1"
       transform="matrix(12.265681,0,0,-12.265681,780.76615,590.02708)"
       id="g4380">
      <path
         id="path4382"
         style="fill:#ffffff;fill-opacity:1;fill-rule:nonzero;stroke:none"
         d="M 0,0 C -0.578,-0.298 -1.629,-0.266 -1.303,0.264 -0.959,0.811 -0.475,1.783 -0.295,2.313 -0.148,2.731 0.357,2.315 0.609,1.784 0.975,1.013 0.586,0.303 0,0" />
    </g>
  </g>
</svg>
