<?xml version="1.0" encoding="UTF-8" standalone="no"?>
<!-- Created with Inkscape (http://www.inkscape.org/) -->

<svg
   xmlns:dc="http://purl.org/dc/elements/1.1/"
   xmlns:cc="http://creativecommons.org/ns#"
   xmlns:rdf="http://www.w3.org/1999/02/22-rdf-syntax-ns#"
   xmlns:svg="http://www.w3.org/2000/svg"
   xmlns="http://www.w3.org/2000/svg"
   xmlns:xlink="http://www.w3.org/1999/xlink"
   xmlns:sodipodi="http://sodipodi.sourceforge.net/DTD/sodipodi-0.dtd"
   xmlns:inkscape="http://www.inkscape.org/namespaces/inkscape"
   width="1000"
   height="718.86499"
   viewBox="0 0 1000 718.865"
   id="svg2"
   version="1.1"
   inkscape:version="0.91 r13725"
   sodipodi:docname="Hello Kitty.svg">
  <defs
     id="defs4">
    <clipPath
       id="clipPath4150"
       clipPathUnits="userSpaceOnUse">
      <path
         inkscape:connector-curvature="0"
         id="path4152"
         d="m 0,780.661 612,0 L 612,0 0,0 0,780.661 Z" />
    </clipPath>
    <clipPath
       id="clipPath4162"
       clipPathUnits="userSpaceOnUse">
      <path
         inkscape:connector-curvature="0"
         id="path4164"
         d="m 0,780.661 612,0 L 612,0 0,0 0,780.661 Z" />
    </clipPath>
    <clipPath
       id="clipPath4170"
       clipPathUnits="userSpaceOnUse">
      <path
         inkscape:connector-curvature="0"
         id="path4172"
         d="m 94.1211,618.24 422.6189,0 0,-292.084 -422.6189,0 0,292.084 z" />
    </clipPath>
    <clipPath
       id="clipPath4174"
       clipPathUnits="userSpaceOnUse">
      <path
         inkscape:connector-curvature="0"
         id="path4176"
         d="m 93.1211,619.24 424.6189,0 0,-294.08 -424.6189,0 0,294.08 z" />
    </clipPath>
    <clipPath
       id="clipPath4178"
       clipPathUnits="userSpaceOnUse">
      <path
         inkscape:connector-curvature="0"
         id="path4180"
         d="m 94.1211,618.24 422.6189,0 0,-292.084 -422.6189,0 0,292.084 z" />
    </clipPath>
    <clipPath
       id="clipPath4182"
       clipPathUnits="userSpaceOnUse">
      <path
         inkscape:connector-curvature="0"
         id="path4184"
         d="m 94.121,326.16 422.619,0 0,292.08 -422.619,0 0,-292.08 z" />
    </clipPath>

    <clipPath
       id="clipPath4222"
       clipPathUnits="userSpaceOnUse">
      <path
         inkscape:connector-curvature="0"
         id="path4224"
         d="m 96.4619,568.054 417.8541,0 0,-239.884 -417.8541,0 0,239.884 z" />
    </clipPath>
    <clipPath
       id="clipPath4226"
       clipPathUnits="userSpaceOnUse">
      <path
         inkscape:connector-curvature="0"
         id="path4228"
         d="m 96.462,328.17 417.849,0 0,239.884 -417.849,0 0,-239.884 z" />
    </clipPath>
    <linearGradient
       id="linearGradient4254"
       spreadMethod="pad"
       gradientTransform="matrix(205.83704,-380.37354,380.37354,205.83704,202.9375,682.52441)"
       gradientUnits="userSpaceOnUse"
       y2="0"
       x2="1"
       y1="0"
       x1="0">
      <stop
         id="stop4256"
         offset="0"
         style="stop-opacity:1;stop-color:#ffffff" />
      <stop
         id="stop4258"
         offset="1"
         style="stop-opacity:1;stop-color:#eceff0" />
    </linearGradient>
    <clipPath
       id="clipPath4266"
       clipPathUnits="userSpaceOnUse">
      <path
         inkscape:connector-curvature="0"
         id="path4268"
         d="m 0,780.661 612,0 L 612,0 0,0 0,780.661 Z" />
    </clipPath>
    <clipPath
       id="clipPath4274"
       clipPathUnits="userSpaceOnUse">
      <path
         inkscape:connector-curvature="0"
         id="path4276"
         d="m 96.4619,569.876 417.8541,0 0,-201.939 -417.8541,0 0,201.939 z" />
    </clipPath>
  </defs>
  <sodipodi:namedview
     id="base"
     pagecolor="#ffffff"
     bordercolor="#666666"
     borderopacity="1.0"
     inkscape:pageopacity="0.0"
     inkscape:pageshadow="2"
     inkscape:zoom="0.24748737"
     inkscape:cx="1373.6525"
     inkscape:cy="241.53881"
     inkscape:document-units="px"
     inkscape:current-layer="layer1"
     showgrid="false"
     units="px"
     inkscape:window-width="1366"
     inkscape:window-height="705"
     inkscape:window-x="-8"
     inkscape:window-y="-8"
     inkscape:window-maximized="1" />
  <metadata
     id="metadata7">
    <rdf:RDF>
      <cc:Work
         rdf:about="">
        <dc:format>image/svg+xml</dc:format>
        <dc:type
           rdf:resource="http://purl.org/dc/dcmitype/StillImage" />
        <dc:title></dc:title>
      </cc:Work>
    </rdf:RDF>
  </metadata>
  <g
     inkscape:label="Layer 1"
     inkscape:groupmode="layer"
     id="layer1"
     transform="translate(0,-333.49718)">
    <g
       id="g4146"
       transform="matrix(12.265681,0,0,-12.265681,-3242.2569,7996.3064)">
      <g
         id="g4148"
         clip-path="url(#clipPath4150)" />
    </g>
    <g
       id="g4158"
       transform="matrix(12.265681,0,0,-12.265681,-3242.2569,7996.3064)">
      <g
         id="g4160"
         clip-path="url(#clipPath4162)">
        <g
           id="g4166">
          <g
             id="g4168" />
          <g
             id="g4218"
             mask="url(#mask4186)">
            <g
               id="g4220" />
            <g
               id="g4230">
              <g
                 clip-path="url(#clipPath4222)"
                 id="g4232">
                <g
                   id="g4234">
                  <g
                     clip-path="url(#clipPath4226)"
                     id="g4236">
                    <g
                       transform="translate(514.3164,328.1699)"
                       id="g4238" />
                  </g>
                </g>
              </g>
            </g>
          </g>
        </g>
      </g>
    </g>
    <g
       id="g4242"
       transform="matrix(12.265681,0,0,-12.265681,-3242.2569,7996.3064)">
      <g
         id="g4244">
        <g
           id="g4250">
          <g
             id="g4252" />
        </g>
      </g>
    </g>
    <g
       id="g4270"
       transform="matrix(12.265681,0,0,-12.265681,-3242.2569,7996.3064)">
      <g
         id="g4272" />
      <g
         id="g4278">
        <g
           clip-path="url(#clipPath4274)"
           id="g4280" />
      </g>
    </g>
    <g
       id="g4336"
       transform="matrix(12.265681,0,0,-12.265681,518.39588,1052.3622)"
       style="fill:#000000">
      <path
         d="m 0,0 c 11.709,0.112 16.977,2.155 19.82,3.621 2.688,1.312 5.106,3.033 7.278,5.625 0.435,0.528 0.941,0.333 1.574,0.056 1.137,-0.489 3.459,-1.637 4.359,-1.902 1.813,-0.538 2.289,1.113 0.469,1.985 -1.148,0.552 -3.535,1.786 -4.07,2.124 -0.467,0.287 -0.666,0.41 -0.369,0.905 0.371,0.617 1.228,2.736 1.306,3.105 0.174,0.79 0.51,1.099 1.545,0.965 1.465,-0.198 3.693,-0.585 4.734,-0.33 0.903,0.229 0.354,1.127 -0.21,1.328 -0.541,0.2 -3.082,0.86 -3.993,0.971 -0.851,0.11 -1.195,0.486 -1.14,0.995 0.062,0.516 0.379,2.804 0.359,3.631 -0.029,0.935 0.717,0.828 1.348,0.905 0.629,0.083 3.904,-0.084 4.908,-0.043 2.299,0.083 1.271,1.614 -0.246,1.8 -1.246,0.157 -4.291,0.307 -5.076,0.306 -0.735,0 -1.045,-0.143 -1.057,0.943 -0.039,3.404 -1.857,8.521 -3.24,11.167 -0.149,0.298 -0.186,0.732 -0.104,1.077 1.311,5.483 0.442,15.752 -3.138,17.566 -2.297,0.978 -9.395,-0.602 -12.944,-2.508 -1.621,-0.83 -2.519,-1.305 -2.982,-1.555 -0.328,-0.144 -0.69,-0.172 -1.006,-0.115 -1.002,0.177 -3.279,0.51 -6.406,0.51 -6.948,0 -12.657,-0.69 -15.373,-1.338 -0.487,-0.115 -1.032,-0.064 -1.51,0.167 -3.585,1.716 -6.107,2.8 -10.719,3.418 -2.875,0.392 -3.992,-1.087 -5.015,-2.786 -2.582,-4.711 -2.355,-10.31 -0.904,-14.176 0.341,-1.059 0.144,-1.011 -0.518,-2.271 -1.58,-3.036 -2.883,-7.285 -2.7,-12.087 0.026,-0.539 -0.702,-0.555 -1.082,-0.576 -1.304,-0.08 -3.778,-0.335 -4.882,-0.661 -1.92,-0.567 -1.537,-2.167 0.201,-1.798 0.67,0.144 4.394,0.406 5.015,0.363 0.628,-0.037 0.875,0.179 1.019,-0.632 0.19,-1.017 0.752,-3.302 1.007,-4.025 0.188,-0.543 0.135,-0.61 -0.498,-0.814 -0.65,-0.212 -1.961,-0.64 -2.764,-0.883 -1.251,-0.373 -1.195,-1.853 0.223,-1.625 1.022,0.162 2.166,0.396 3.084,0.528 0.795,0.121 1.052,0.019 1.422,-0.708 0.449,-0.894 1.385,-2.264 2.035,-3.064 0.365,-0.462 0.097,-0.689 -0.442,-0.929 -0.541,-0.245 -3.694,-2.11 -4.488,-3.005 -1.213,-1.363 0.147,-2.149 1.227,-1.309 1.361,1.054 3.783,2.341 4.691,2.782 0.665,0.321 0.92,0.446 1.469,-0.054 1.928,-1.738 4.332,-3.107 7.025,-4.18 C -15.169,1.294 -7.492,0.056 0,0"
         style="fill:#000000;fill-opacity:1;fill-rule:nonzero;stroke:none"
         id="path4338"
         inkscape:connector-curvature="0" />
    </g>
    <g
       id="g4340"
       transform="matrix(12.265681,0,0,-12.265681,636.7646,437.92773)">
      <path
         d="m 0,0 c 0.904,0.484 2.373,1.27 3.361,1.753 3.526,1.788 8.067,3.091 10.612,2.666 2.218,-0.491 3.695,-8.57 2.095,-15.492 -0.138,-0.35 -0.14,-0.987 0.123,-1.471 1.991,-3.698 3.291,-7.536 3.344,-10.81 0.016,-0.797 -0.219,-0.875 -0.519,-0.96 -0.752,-0.234 -2.34,-0.436 -3.092,-0.689 -1.156,-0.388 -1.145,-1.462 -0.445,-1.714 0.794,-0.29 1.783,0 2.714,0.146 0.932,0.145 1.362,0.208 1.373,-0.414 0.024,-1.01 -0.148,-2.76 -0.406,-3.666 -0.123,-0.422 -0.181,-0.373 -0.572,-0.431 -0.859,-0.146 -1.209,0 -1.711,-0.117 -0.496,-0.117 -0.838,-0.614 -0.416,-1.139 0.4,-0.503 1.207,-0.558 1.812,-0.79 0.569,-0.211 -0.941,-2.882 -1.353,-3.738 -0.371,-0.784 -0.852,-0.497 -1.35,-0.453 -0.713,0.061 -1.679,0.388 -2.047,-0.32 -0.25,-0.482 -0.115,-0.78 0.323,-1.131 0.515,-0.413 1.306,-0.393 0.974,-0.954 -0.525,-0.897 -3.375,-3.771 -8.654,-5.704 -7.037,-2.387 -17.648,-2.958 -28.297,-0.906 -6.103,1.226 -10.562,3.191 -12.949,5.2 -0.564,0.48 -0.006,0.755 0.476,0.95 0.475,0.202 0.958,0.457 1.161,0.86 0.203,0.41 -0.088,1.082 -0.871,1.044 -0.459,-0.015 -1.588,-0.404 -2.168,-0.624 -0.706,-0.27 -0.831,-0.127 -1.336,0.377 -0.918,0.919 -1.641,2.398 -1.842,2.815 -0.194,0.393 -0.162,0.561 0.514,0.727 0.695,0.178 1.55,0.39 1.869,0.813 0.297,0.384 -0.155,1.087 -1.131,0.981 -0.937,-0.102 -1.656,-0.13 -1.99,-0.12 -0.201,0.003 -0.348,0.174 -0.498,0.518 -0.483,1.101 -0.991,3.272 -1.023,3.756 -0.038,0.582 0.286,0.514 0.988,0.516 0.701,0.009 2.006,-0.137 2.763,0 0.622,0.113 0.766,0.979 0.35,1.355 -0.444,0.395 -2.273,0.597 -3.514,0.665 -1.022,0.055 -0.91,0.375 -0.891,1.759 0.059,3.479 1.487,8.513 3.718,12.06 0.668,1.053 1.461,2.006 1.525,2.68 0.078,0.877 -0.824,1.437 -1.579,0.875 -0.452,-0.339 -0.517,-0.557 -0.792,0.084 -1.744,4.874 0.455,10.412 2.205,11.484 1.919,1.188 7.906,-0.999 10.986,-2.878 1.451,-0.924 1.859,-0.845 3.162,-0.46 1.881,0.561 8.5,1.311 15.184,1.311 3.634,0 5.382,-0.245 6.232,-0.474 C -0.969,-0.171 -0.646,-0.231 0,0"
         style="fill:#ffffff;fill-opacity:1;fill-rule:nonzero;stroke:none"
         id="path4342"
         inkscape:connector-curvature="0" />
    </g>
    <g
       id="g4344"
       transform="matrix(12.265681,0,0,-12.265681,269.58532,815.12233)"
       style="fill:#000000">
      <path
         d="m 0,0 c 0,-1.27 0.651,-2.708 2.379,-2.708 1.725,0 2.405,1.805 2.405,3.01 0,1.205 -0.346,3.232 -2.325,3.232 C 0.477,3.534 0,1.411 0,0"
         style="fill:#000000;fill-opacity:1;fill-rule:nonzero;stroke:none"
         id="path4346"
         inkscape:connector-curvature="0" />
    </g>
    <g
       id="g4348"
       transform="matrix(12.265681,0,0,-12.265681,672.29215,809.26424)"
       style="fill:#000000">
      <path
         d="m 0,0 c 0,-1.89 0.809,-3.186 2.533,-3.186 1.362,0 2.201,1.52 2.201,3.06 0,2.184 -0.92,3.131 -2.377,3.131 C 0.6,3.005 0,1.078 0,0"
         style="fill:#000000;fill-opacity:1;fill-rule:nonzero;stroke:none"
         id="path4350"
         inkscape:connector-curvature="0" />
    </g>
    <g
       id="g4352"
       transform="matrix(12.265681,0,0,-12.265681,459.39182,874.80909)"
       style="fill:#000000">
      <path
         d="m 0,0 c 0,-1.978 1.662,-2.912 4.035,-2.912 2.379,0 3.486,1.425 3.486,2.789 0,1.24 -1.312,2.818 -3.753,2.818 C 1.188,2.695 0,1.287 0,0"
         style="fill:#000000;fill-opacity:1;fill-rule:nonzero;stroke:none"
         id="path4354"
         inkscape:connector-curvature="0" />
    </g>
    <g
       id="g4356"
       transform="matrix(12.265681,0,0,-12.265681,479.61057,876.70193)"
       style="fill:#ffc400;fill-opacity:1">
      <path
         d="m 0,0 c 0,-0.793 0.936,-1.362 2.186,-1.362 1.187,0 1.927,0.444 1.927,1.281 0,0.905 -0.918,1.43 -2.088,1.43 C 0.855,1.349 0,0.854 0,0"
         style="fill:#ffc400;fill-opacity:1;fill-rule:nonzero;stroke:none"
         id="path4358"
         inkscape:connector-curvature="0" />
    </g>
    <g
       id="g4360"
       transform="matrix(12.265681,0,0,-12.265681,775.16073,689.43443)"
       style="fill:#000000">
      <path
         d="m 0,0 c -3.418,0.431 -5.123,3.462 -5.822,4.584 -0.381,0.603 -0.274,0.787 -1.213,0.809 -1.514,0.043 -4.315,1.576 -5.121,3.106 -0.576,1.089 -0.85,0.642 -2.44,0.12 -2.619,-0.858 -5.011,-0.759 -6.968,0.373 -4.208,2.593 -3.206,8.424 -2.395,10.606 1.717,4.881 4.055,7.938 7.107,9.117 4.381,1.336 7.416,-2.068 8.579,-3.692 0.919,-1.391 1.589,-2.884 2.107,-4.423 0.338,-0.807 0.141,-1.246 0.898,-1.435 1.827,-0.47 2.842,-1.05 3.497,-1.636 0.566,-0.499 0.658,-0.588 1.666,-0.279 0.806,0.247 4.164,0.896 5.74,0.509 1.306,-0.18 2.636,-0.936 3.636,-1.908 1.268,-1.154 3.086,-4.726 0.37,-9.602 C 7.156,2.233 3.352,-0.404 0,0"
         style="fill:#000000;fill-opacity:1;fill-rule:nonzero;stroke:none"
         id="path4362"
         inkscape:connector-curvature="0" />
    </g>
    <g
       id="g4364"
       transform="matrix(12.265681,0,0,-12.265681,500.47695,510.82767)"
       style="fill:#f50026;fill-opacity:1">
      <path
         d="m 0,0 c 0.354,-3.176 2.59,-4.893 6.564,-4.076 0.979,0.204 2.002,0.53 2.34,0.869 C 9.25,-2.873 9.23,-2.31 9.08,-2.063 8.848,-1.688 6.063,-0.967 6.455,2.219 6.76,4.727 9.08,5.463 9.77,5.527 11.506,5.683 12.805,4.502 13.074,4.281 13.35,4.059 14.16,4.504 14.027,5.189 13.707,6.862 12.182,8.93 11.363,9.992 10.828,10.686 9.057,12.475 6.566,11.927 2.811,10.8 -0.271,4.325 0,0"
         style="fill:#f50026;fill-opacity:1;fill-rule:nonzero;stroke:none"
         id="path4366"
         inkscape:connector-curvature="0" />
    </g>
    <g
       id="g4368"
       transform="matrix(12.265681,0,0,-12.265681,640.09474,475.64725)"
       style="fill:#f50026;fill-opacity:1">
      <path
         d="m 0,0 c -0.441,-0.304 -1.52,-1.97 -1.688,-2.679 -0.119,-0.499 -1.445,0.461 -1.347,1.462 0.066,0.646 0.176,1.293 1,1.714 C -1.023,1.019 0.232,0.167 0,0"
         style="fill:#f50026;fill-opacity:1;fill-rule:nonzero;stroke:none"
         id="path4370"
         inkscape:connector-curvature="0" />
    </g>
    <g
       id="g4372"
       transform="matrix(12.265681,0,0,-12.265681,753.88713,541.97014)"
       style="fill:#f50026;fill-opacity:1">
      <path
         d="m 0,0 c -0.283,-2.139 -1.533,-3.426 -2.627,-4.039 -3.041,-1.696 -7.191,0.91 -6.658,4.805 0.258,1.903 1.281,3.39 2.935,3.94 C -2.271,6.063 0.426,2.622 0,0"
         style="fill:#f50026;fill-opacity:1;fill-rule:nonzero;stroke:none"
         id="path4374"
         inkscape:connector-curvature="0" />
    </g>
    <g
       id="g4376"
       transform="matrix(12.265681,0,0,-12.265681,878.98726,526.7288)"
       style="fill:#f50026;fill-opacity:1">
      <path
         d="m 0,0 c 1.232,-2.316 -0.336,-5.673 -1.889,-7.445 -2.793,-3.182 -5.078,-4.099 -7.431,-3.326 -1.543,0.51 -2.52,1.894 -2.951,2.755 -0.219,0.451 0.009,0.577 0.599,0.915 0.443,0.257 0.752,0.59 1.188,0.396 1.193,-0.526 3.068,-0.432 4.045,0.477 0.802,0.759 1.298,2.403 0.775,3.573 -0.561,1.262 -1.506,1.831 -2.061,2.108 -0.472,0.236 -0.431,0.675 -0.498,1.126 -0.09,0.661 -0.054,0.884 0.285,1.062 0.559,0.297 1.821,0.569 2.708,0.624 C -4.352,2.32 -1.281,2.397 0,0"
         style="fill:#f50026;fill-opacity:1;fill-rule:nonzero;stroke:none"
         id="path4378"
         inkscape:connector-curvature="0" />
    </g>
    <g
       id="g4380"
       transform="matrix(12.265681,0,0,-12.265681,780.76615,590.02708)"
       style="fill:#f50026;fill-opacity:1">
      <path
         d="m 0,0 c -0.578,-0.298 -1.629,-0.266 -1.303,0.264 0.344,0.547 0.828,1.519 1.008,2.049 C -0.148,2.731 0.357,2.315 0.609,1.784 0.975,1.013 0.586,0.303 0,0"
         style="fill:#f50026;fill-opacity:1;fill-rule:nonzero;stroke:none"
         id="path4382"
         inkscape:connector-curvature="0" />
    </g>
  </g>
</svg>
